<svg xmlns="http://www.w3.org/2000/svg" viewBox="0 0 435.69 217.85"><title>Alibaba logo</title><path d="M555.41,588.55c-17.66.79-15.72-8.3-5.48-22.39,23.93-32.1,69.33-76.88,70.65-108.59,3-41.24-38.64-54.89-81.47-54.49a263,263,0,0,0-81.56,16.47c-72.64,25.57-118.21,66.59-146.87,112-30.47,45-20.45,87.92,43.81,89.38,49.28-2,81.3-15.63,114.81-32.72,0,0-92.34,26.5-126.34,7a14.93,14.93,0,0,1-8.3-12.41c0-16.07,26.5-32.72,41.47-38.07V516.88a98.12,98.12,0,0,0,98.52-16.34,23.5,23.5,0,0,1,.57,8.08h6.71a19.42,19.42,0,0,0-3.14-12.81,20.45,20.45,0,0,0-16.6-9.45,23.77,23.77,0,0,1,9.63,8.48,90,90,0,0,1-84.7,16.91l22.08-21.81-6.09-15.85a795.65,795.65,0,0,1,141.71-37.84l-13.56-11.08,7.07-4.42c36.48,10.11,60.54,17.66,59,37a48,48,0,0,1-3.67,11.08c-10.6,21-42.22,56.08-55,70.65a271.76,271.76,0,0,0-22.61,28.35,49.25,49.25,0,0,0-10,25.88c.75,63.63,187.59-29.72,223.71-54.49C676.41,562.06,618.87,584.45,555.41,588.55Z" transform="translate(-294.16 -403.08)" style="fill:#f60"/></svg>